<svg width="137" height="102" viewBox="0 0 137 102" fill="none" xmlns="http://www.w3.org/2000/svg">
<path d="M133.57 32.5104L133.57 32.5123C134.888 65.4553 114.939 90.2323 86.6108 98.4446L86.2187 97.9054C91.7692 93.0942 95.205 88.5352 96.9729 84.1763C98.9567 79.285 98.7707 74.8113 97.3589 70.853C95.9747 66.9724 93.4508 63.6871 90.9105 60.9823C89.1935 59.1543 87.3153 57.4436 85.7416 56.0105C85.0377 55.3693 84.3947 54.7837 83.8544 54.268L83.8544 54.268L83.8447 54.2588C78.0232 48.7608 74.1882 41.0452 74.1882 32.4124C74.1882 16.0451 87.6849 2.5484 104.052 2.5484C120.3 2.5484 132.92 15.941 133.57 32.5104ZM61.8821 32.5104L61.8822 32.5123C63.1991 65.4367 42.9339 90.2274 14.5749 98.4447L14.1827 97.9054C19.7335 93.0941 23.1687 88.5358 24.9413 84.1788C26.9299 79.2908 26.7566 74.8214 25.3711 70.8663C24.0126 66.9884 21.5258 63.7034 19.0385 61.0008C17.4637 59.2898 15.7017 57.6306 14.2221 56.2374C13.4522 55.5124 12.7588 54.8594 12.2079 54.3086L12.1589 54.2595L12.1071 54.2133C6.02849 48.7745 2.50016 41.1016 2.50016 32.4124C2.50016 16.0098 15.6839 2.54839 32.0162 2.54839C48.2982 2.54839 61.2337 15.9771 61.8821 32.5104Z" fill="#4AE8D1"/>
<path d="M133.57 32.5104L133.57 32.5123C134.888 65.4553 114.939 90.2323 86.6108 98.4446L86.2187 97.9054C91.7692 93.0942 95.205 88.5352 96.9729 84.1763C98.9567 79.285 98.7707 74.8113 97.3589 70.853C95.9747 66.9724 93.4508 63.6871 90.9105 60.9823C89.1935 59.1543 87.3153 57.4436 85.7416 56.0105C85.0377 55.3693 84.3947 54.7837 83.8544 54.268L83.8544 54.268L83.8447 54.2588C78.0232 48.7608 74.1882 41.0452 74.1882 32.4124C74.1882 16.0451 87.6849 2.5484 104.052 2.5484C120.3 2.5484 132.92 15.941 133.57 32.5104ZM61.8821 32.5104L61.8822 32.5123C63.1991 65.4367 42.9339 90.2274 14.5749 98.4447L14.1827 97.9054C19.7335 93.0941 23.1687 88.5358 24.9413 84.1788C26.9299 79.2908 26.7566 74.8214 25.3711 70.8663C24.0126 66.9884 21.5258 63.7034 19.0385 61.0008C17.4637 59.2898 15.7017 57.6306 14.2221 56.2374C13.4522 55.5124 12.7588 54.8594 12.2079 54.3086L12.1589 54.2595L12.1071 54.2133C6.02849 48.7745 2.50016 41.1016 2.50016 32.4124C2.50016 16.0098 15.6839 2.54839 32.0162 2.54839C48.2982 2.54839 61.2337 15.9771 61.8821 32.5104Z" fill="black"/>
<path d="M133.57 32.5104L133.57 32.5123C134.888 65.4553 114.939 90.2323 86.6108 98.4446L86.2187 97.9054C91.7692 93.0942 95.205 88.5352 96.9729 84.1763C98.9567 79.285 98.7707 74.8113 97.3589 70.853C95.9747 66.9724 93.4508 63.6871 90.9105 60.9823C89.1935 59.1543 87.3153 57.4436 85.7416 56.0105C85.0377 55.3693 84.3947 54.7837 83.8544 54.268L83.8544 54.268L83.8447 54.2588C78.0232 48.7608 74.1882 41.0452 74.1882 32.4124C74.1882 16.0451 87.6849 2.5484 104.052 2.5484C120.3 2.5484 132.92 15.941 133.57 32.5104ZM61.8821 32.5104L61.8822 32.5123C63.1991 65.4367 42.9339 90.2274 14.5749 98.4447L14.1827 97.9054C19.7335 93.0941 23.1687 88.5358 24.9413 84.1788C26.9299 79.2908 26.7566 74.8214 25.3711 70.8663C24.0126 66.9884 21.5258 63.7034 19.0385 61.0008C17.4637 59.2898 15.7017 57.6306 14.2221 56.2374C13.4522 55.5124 12.7588 54.8594 12.2079 54.3086L12.1589 54.2595L12.1071 54.2133C6.02849 48.7745 2.50016 41.1016 2.50016 32.4124C2.50016 16.0098 15.6839 2.54839 32.0162 2.54839C48.2982 2.54839 61.2337 15.9771 61.8821 32.5104Z" stroke="url(#paint0_linear)" stroke-width="5"/>
<defs>
<linearGradient id="paint0_linear" x1="68.066" y1="101.316" x2="68.066" y2="0.0483949" gradientUnits="userSpaceOnUse">
<stop stop-color="white"/>
<stop offset="1" stop-color="#03009F"/>
</linearGradient>
</defs>
</svg>
