<svg width="481" height="137" viewBox="0 0 481 137" fill="none" xmlns="http://www.w3.org/2000/svg">
<path d="M437.84 118.596C397.613 118.596 169.341 119.096 53.8406 136.096C43.8406 136.096 40.3406 127.096 31.8406 90.0957C25.5025 62.5064 27.2265 56.0453 28.5134 54.5433C23.8718 56.9772 1.23775 67.7839 0.340494 47.5957C-0.659506 25.0957 -1.65939 23.6627 31.8406 12.5959C87.8405 -5.90384 100.841 19.0959 113.341 12.5959C125.841 6.09594 351.34 -0.904064 437.84 0.095936C524.34 1.09594 448.34 54.5959 469.34 64.5959C490.34 74.5959 455 118.596 437.84 118.596Z" fill="#5DD9FF"/>
<path d="M92.392 74.16C91.912 76.224 91.144 78.336 90.088 80.496C89.032 82.608 87.616 84.552 85.84 86.328C84.064 88.056 81.904 89.472 79.36 90.576C76.816 91.728 73.792 92.304 70.288 92.304C66.88 92.304 63.64 91.704 60.568 90.504C57.544 89.352 54.88 87.576 52.576 85.176C50.272 82.776 48.424 79.776 47.032 76.176C45.688 72.528 45.016 68.28 45.016 63.432C45.016 58.968 45.568 54.864 46.672 51.12C47.776 47.328 49.36 44.064 51.424 41.328C53.536 38.592 56.104 36.456 59.128 34.92C62.152 33.384 65.584 32.616 69.424 32.616C72.304 32.616 74.536 32.952 76.12 33.624C77.752 34.296 78.88 34.848 79.504 35.28L81.664 33.192H84.832L90.448 46.728L87.424 48.312C86.368 46.824 85.192 45.432 83.896 44.136C82.6 42.792 81.232 41.616 79.792 40.608C78.352 39.6 76.864 38.808 75.328 38.232C73.792 37.656 72.232 37.368 70.648 37.368C68.44 37.368 66.448 37.8 64.672 38.664C62.896 39.48 61.36 40.896 60.064 42.912C58.816 44.928 57.856 47.64 57.184 51.048C56.512 54.456 56.176 58.752 56.176 63.936C56.176 71.856 57.496 77.784 60.136 81.72C62.824 85.608 66.472 87.552 71.08 87.552C73.672 87.552 75.928 87.048 77.848 86.04C79.768 85.032 81.376 83.784 82.672 82.296C84.016 80.808 85.072 79.224 85.84 77.544C86.608 75.816 87.16 74.256 87.496 72.864L92.392 74.16ZM134.004 90H120.54V87.192C118.86 88.392 117.06 89.328 115.14 90C113.268 90.672 111.252 91.008 109.092 91.008C105.492 91.008 102.804 90.096 101.028 88.272C99.2515 86.448 98.3635 83.76 98.3635 80.208V64.224C98.3635 63.648 98.1475 63.168 97.7155 62.784C97.2835 62.352 96.8035 62.136 96.2755 62.136H95.1955V59.4L106.068 54.144H107.148V79.704C107.148 81.768 107.676 83.328 108.732 84.384C109.788 85.44 111.276 85.968 113.195 85.968C114.396 85.968 115.644 85.656 116.94 85.032C118.236 84.36 119.436 83.616 120.54 82.8V64.656C120.54 63.84 120.3 63.216 119.82 62.784C119.388 62.352 118.764 62.136 117.948 62.136H117.084V59.4L128.532 54.144H129.612V82.656C129.612 83.328 129.732 83.904 129.972 84.384C130.212 84.816 130.5 85.2 130.836 85.536C131.172 85.824 131.508 86.064 131.844 86.256C132.228 86.4 132.54 86.496 132.78 86.544L134.004 86.832V90ZM168.444 58.032C168.444 59.136 168.06 60.048 167.292 60.768C166.524 61.488 165.636 61.848 164.628 61.848C163.956 61.848 163.356 61.776 162.828 61.632C162.3 61.488 161.796 61.32 161.316 61.128C160.884 60.936 160.452 60.768 160.02 60.624C159.588 60.48 159.132 60.408 158.652 60.408C158.076 60.408 157.476 60.576 156.852 60.912C156.228 61.248 155.604 61.704 154.98 62.28C154.356 62.856 153.756 63.528 153.18 64.296C152.604 65.016 152.124 65.76 151.74 66.528V82.152C151.74 83.112 151.908 83.88 152.244 84.456C152.58 85.032 152.988 85.488 153.468 85.824C153.996 86.16 154.548 86.424 155.124 86.616C155.7 86.76 156.228 86.904 156.708 87.048V90H137.196V86.976C137.82 86.832 138.444 86.664 139.068 86.472C139.692 86.232 140.268 85.92 140.796 85.536C141.324 85.104 141.756 84.6 142.092 84.024C142.428 83.4 142.596 82.608 142.596 81.648V69.552C142.596 68.496 142.476 67.632 142.236 66.96C141.996 66.288 141.708 65.76 141.372 65.376C141.084 64.992 140.748 64.728 140.364 64.584C140.028 64.44 139.74 64.344 139.5 64.296L137.268 64.008V60.84C138.18 60.504 139.092 60.12 140.004 59.688C140.916 59.256 141.828 58.8 142.74 58.32C143.844 57.744 144.852 57.168 145.764 56.592C146.676 55.968 147.468 55.392 148.14 54.864H151.74V60.336C153.18 58.704 154.86 57.24 156.78 55.944C158.7 54.6 160.836 53.928 163.188 53.928C165.012 53.928 166.332 54.408 167.148 55.368C168.012 56.28 168.444 57.168 168.444 58.032ZM201.491 58.032C201.491 59.136 201.107 60.048 200.339 60.768C199.571 61.488 198.683 61.848 197.675 61.848C197.003 61.848 196.403 61.776 195.875 61.632C195.347 61.488 194.843 61.32 194.363 61.128C193.931 60.936 193.499 60.768 193.067 60.624C192.635 60.48 192.179 60.408 191.699 60.408C191.123 60.408 190.523 60.576 189.899 60.912C189.275 61.248 188.651 61.704 188.027 62.28C187.403 62.856 186.803 63.528 186.227 64.296C185.651 65.016 185.171 65.76 184.787 66.528V82.152C184.787 83.112 184.955 83.88 185.291 84.456C185.627 85.032 186.035 85.488 186.515 85.824C187.043 86.16 187.595 86.424 188.171 86.616C188.747 86.76 189.275 86.904 189.755 87.048V90H170.243V86.976C170.867 86.832 171.491 86.664 172.115 86.472C172.739 86.232 173.315 85.92 173.843 85.536C174.371 85.104 174.803 84.6 175.139 84.024C175.475 83.4 175.643 82.608 175.643 81.648V69.552C175.643 68.496 175.523 67.632 175.283 66.96C175.043 66.288 174.755 65.76 174.419 65.376C174.131 64.992 173.795 64.728 173.411 64.584C173.075 64.44 172.787 64.344 172.547 64.296L170.315 64.008V60.84C171.227 60.504 172.139 60.12 173.051 59.688C173.963 59.256 174.875 58.8 175.787 58.32C176.891 57.744 177.899 57.168 178.811 56.592C179.723 55.968 180.515 55.392 181.187 54.864H184.787V60.336C186.227 58.704 187.907 57.24 189.827 55.944C191.747 54.6 193.883 53.928 196.235 53.928C198.059 53.928 199.379 54.408 200.195 55.368C201.059 56.28 201.491 57.168 201.491 58.032ZM218.913 39.096C218.913 40.536 218.385 41.784 217.329 42.84C216.321 43.848 215.097 44.352 213.657 44.352C212.217 44.352 210.969 43.848 209.913 42.84C208.905 41.784 208.401 40.536 208.401 39.096C208.401 37.656 208.905 36.432 209.913 35.424C210.969 34.368 212.217 33.84 213.657 33.84C215.097 33.84 216.321 34.368 217.329 35.424C218.385 36.432 218.913 37.656 218.913 39.096ZM222.801 90H203.721V86.976C204.345 86.832 204.969 86.664 205.593 86.472C206.217 86.232 206.793 85.92 207.321 85.536C207.849 85.104 208.281 84.6 208.617 84.024C208.953 83.4 209.121 82.608 209.121 81.648V69.552C209.121 68.496 209.001 67.632 208.761 66.96C208.521 66.288 208.233 65.76 207.897 65.376C207.609 64.992 207.273 64.728 206.889 64.584C206.553 64.44 206.265 64.344 206.025 64.296L203.793 64.008V60.84C204.705 60.504 205.617 60.12 206.529 59.688C207.441 59.256 208.353 58.8 209.265 58.32C210.369 57.744 211.377 57.168 212.289 56.592C213.201 55.968 213.993 55.392 214.665 54.864H218.265V82.152C218.265 83.112 218.409 83.88 218.697 84.456C218.985 85.032 219.345 85.488 219.777 85.824C220.257 86.16 220.761 86.424 221.289 86.616C221.817 86.76 222.321 86.904 222.801 87.048V90ZM259.246 79.56C258.718 81.144 258.022 82.656 257.158 84.096C256.342 85.488 255.31 86.712 254.062 87.768C252.814 88.824 251.374 89.664 249.742 90.288C248.11 90.912 246.262 91.224 244.198 91.224C242.23 91.224 240.214 90.864 238.15 90.144C236.086 89.472 234.214 88.416 232.534 86.976C230.854 85.488 229.462 83.616 228.358 81.36C227.302 79.056 226.774 76.296 226.774 73.08C226.774 69.816 227.206 66.984 228.07 64.584C228.982 62.136 230.206 60.12 231.742 58.536C233.326 56.904 235.174 55.704 237.286 54.936C239.446 54.12 241.798 53.712 244.342 53.712C246.502 53.712 248.422 53.976 250.102 54.504C251.782 55.032 253.198 55.728 254.35 56.592C255.502 57.408 256.39 58.32 257.014 59.328C257.638 60.288 257.95 61.224 257.95 62.136C257.95 63.336 257.59 64.32 256.87 65.088C256.198 65.856 255.262 66.24 254.062 66.24C252.718 66.24 251.71 65.928 251.038 65.304C250.366 64.632 249.862 63.744 249.526 62.64C249.382 62.112 249.142 61.536 248.806 60.912C248.518 60.288 248.134 59.712 247.654 59.184C247.222 58.608 246.694 58.152 246.07 57.816C245.494 57.432 244.822 57.24 244.054 57.24C243.286 57.24 242.446 57.48 241.534 57.96C240.67 58.44 239.854 59.28 239.086 60.48C238.318 61.632 237.67 63.216 237.142 65.232C236.662 67.248 236.422 69.768 236.422 72.792C236.422 75.336 236.638 77.52 237.07 79.344C237.502 81.168 238.078 82.656 238.798 83.808C239.566 84.96 240.454 85.824 241.462 86.4C242.518 86.928 243.67 87.192 244.918 87.192C246.31 87.192 247.582 86.904 248.734 86.328C249.934 85.752 250.99 85.008 251.902 84.096C252.814 83.184 253.558 82.2 254.134 81.144C254.758 80.088 255.214 79.08 255.502 78.12L259.246 79.56ZM301.558 90H288.094V87.192C286.414 88.392 284.614 89.328 282.694 90C280.822 90.672 278.806 91.008 276.646 91.008C273.046 91.008 270.358 90.096 268.582 88.272C266.806 86.448 265.918 83.76 265.918 80.208V64.224C265.918 63.648 265.702 63.168 265.27 62.784C264.838 62.352 264.358 62.136 263.83 62.136H262.75V59.4L273.622 54.144H274.702V79.704C274.702 81.768 275.23 83.328 276.286 84.384C277.342 85.44 278.83 85.968 280.75 85.968C281.95 85.968 283.198 85.656 284.494 85.032C285.79 84.36 286.99 83.616 288.094 82.8V64.656C288.094 63.84 287.854 63.216 287.374 62.784C286.942 62.352 286.318 62.136 285.502 62.136H284.638V59.4L296.086 54.144H297.166V82.656C297.166 83.328 297.286 83.904 297.526 84.384C297.766 84.816 298.054 85.2 298.39 85.536C298.726 85.824 299.062 86.064 299.398 86.256C299.782 86.4 300.094 86.496 300.334 86.544L301.558 86.832V90ZM323.83 90H304.75V86.976C305.374 86.832 305.998 86.664 306.622 86.472C307.246 86.232 307.822 85.92 308.35 85.536C308.878 85.104 309.31 84.6 309.646 84.024C309.982 83.4 310.15 82.608 310.15 81.648V48.456C310.15 47.4 310.03 46.536 309.79 45.864C309.55 45.192 309.262 44.664 308.926 44.28C308.638 43.896 308.302 43.632 307.918 43.488C307.582 43.344 307.294 43.248 307.054 43.2L304.822 42.984V39.816C305.734 39.432 306.646 39.048 307.558 38.664C308.47 38.232 309.382 37.752 310.294 37.224C311.398 36.648 312.406 36.072 313.318 35.496C314.23 34.872 315.022 34.296 315.694 33.768H319.294V82.152C319.294 83.112 319.438 83.88 319.726 84.456C320.014 85.032 320.374 85.488 320.806 85.824C321.286 86.16 321.79 86.424 322.318 86.616C322.846 86.76 323.35 86.904 323.83 87.048V90ZM346.752 90H327.672V86.976C328.296 86.832 328.92 86.664 329.544 86.472C330.168 86.232 330.744 85.92 331.272 85.536C331.8 85.104 332.232 84.6 332.568 84.024C332.904 83.4 333.072 82.608 333.072 81.648V48.456C333.072 47.4 332.952 46.536 332.712 45.864C332.472 45.192 332.184 44.664 331.848 44.28C331.56 43.896 331.224 43.632 330.84 43.488C330.504 43.344 330.216 43.248 329.976 43.2L327.744 42.984V39.816C328.656 39.432 329.568 39.048 330.48 38.664C331.392 38.232 332.304 37.752 333.216 37.224C334.32 36.648 335.328 36.072 336.24 35.496C337.152 34.872 337.944 34.296 338.616 33.768H342.216V82.152C342.216 83.112 342.36 83.88 342.648 84.456C342.936 85.032 343.296 85.488 343.728 85.824C344.208 86.16 344.712 86.424 345.24 86.616C345.768 86.76 346.272 86.904 346.752 87.048V90ZM386.45 88.416C385.874 89.088 385.058 89.64 384.002 90.072C382.946 90.504 381.746 90.72 380.402 90.72C378.866 90.72 377.498 90.504 376.298 90.072C375.098 89.64 374.066 88.896 373.202 87.84C372.29 88.608 370.97 89.376 369.242 90.144C367.514 90.96 365.21 91.368 362.33 91.368C360.65 91.368 359.042 91.152 357.506 90.72C356.018 90.336 354.722 89.76 353.618 88.992C352.514 88.176 351.626 87.168 350.954 85.968C350.33 84.768 350.018 83.376 350.018 81.792C350.018 79.632 350.57 77.832 351.674 76.392C352.778 74.952 354.098 73.776 355.634 72.864C357.218 71.904 358.85 71.16 360.53 70.632C362.258 70.104 363.722 69.672 364.922 69.336C366.266 68.952 367.562 68.568 368.81 68.184C370.058 67.8 371.162 67.44 372.122 67.104V63C372.122 61.032 371.642 59.52 370.682 58.464C369.77 57.408 368.642 56.88 367.298 56.88C366.05 56.88 364.994 57.312 364.13 58.176C363.314 58.992 362.642 60 362.114 61.2C361.538 62.496 360.914 63.528 360.242 64.296C359.57 65.064 358.61 65.448 357.362 65.448C356.066 65.448 355.082 65.088 354.41 64.368C353.738 63.648 353.402 62.736 353.402 61.632C353.402 60.672 353.714 59.712 354.338 58.752C355.01 57.744 355.946 56.856 357.146 56.088C358.346 55.32 359.786 54.696 361.466 54.216C363.194 53.736 365.114 53.496 367.226 53.496C369.242 53.496 371.114 53.76 372.842 54.288C374.57 54.768 376.058 55.464 377.306 56.376C378.554 57.288 379.514 58.416 380.186 59.76C380.906 61.056 381.266 62.52 381.266 64.152V83.016C381.266 83.832 381.458 84.528 381.842 85.104C382.274 85.632 382.754 86.064 383.282 86.4C383.858 86.688 384.434 86.856 385.01 86.904C385.586 86.952 386.066 86.904 386.45 86.76V88.416ZM372.122 71.496C370.826 71.544 369.434 71.784 367.946 72.216C366.458 72.648 365.066 73.272 363.77 74.088C362.522 74.856 361.466 75.792 360.602 76.896C359.738 78 359.306 79.224 359.306 80.568C359.306 82.632 359.834 84.216 360.89 85.32C361.946 86.376 363.386 86.904 365.21 86.904C366.122 86.904 366.986 86.76 367.802 86.472C368.618 86.136 369.338 85.68 369.962 85.104C370.634 84.528 371.162 83.856 371.546 83.088C371.93 82.32 372.122 81.456 372.122 80.496V71.496ZM451.605 90H433.605V86.976C434.229 86.784 434.805 86.568 435.333 86.328C435.909 86.088 436.413 85.776 436.845 85.392C437.277 85.008 437.613 84.528 437.853 83.952C438.093 83.376 438.213 82.632 438.213 81.72V65.16C438.213 63.096 437.685 61.536 436.629 60.48C435.621 59.424 434.157 58.896 432.237 58.896C431.565 58.896 430.893 59.016 430.221 59.256C429.597 59.448 428.997 59.712 428.421 60.048C427.845 60.384 427.317 60.744 426.837 61.128C426.357 61.464 425.949 61.776 425.613 62.064C425.757 62.88 425.828 63.744 425.828 64.656V81C425.828 82.008 425.949 82.872 426.189 83.592C426.477 84.264 426.837 84.816 427.269 85.248C427.701 85.68 428.181 86.016 428.709 86.256C429.237 86.496 429.765 86.688 430.293 86.832V90H412.365V86.976C412.989 86.784 413.565 86.568 414.093 86.328C414.669 86.088 415.173 85.776 415.605 85.392C416.037 85.008 416.373 84.528 416.613 83.952C416.853 83.376 416.973 82.632 416.973 81.72V65.16C416.973 63.096 416.445 61.536 415.389 60.48C414.381 59.424 412.917 58.896 410.997 58.896C409.749 58.896 408.501 59.256 407.253 59.976C406.053 60.696 405.093 61.392 404.373 62.064V82.008C404.373 82.968 404.517 83.736 404.805 84.312C405.093 84.888 405.453 85.344 405.885 85.68C406.365 86.016 406.869 86.28 407.397 86.472C407.925 86.616 408.429 86.76 408.909 86.904V90H389.829V86.832C390.453 86.688 391.077 86.52 391.701 86.328C392.325 86.088 392.901 85.776 393.429 85.392C393.957 84.96 394.389 84.456 394.725 83.88C395.061 83.256 395.229 82.464 395.229 81.504V69.48C395.229 68.424 395.109 67.56 394.869 66.888C394.629 66.216 394.341 65.688 394.005 65.304C393.717 64.92 393.381 64.656 392.997 64.512C392.661 64.368 392.373 64.272 392.133 64.224L389.901 64.008V60.84C390.813 60.504 391.725 60.12 392.637 59.688C393.549 59.256 394.461 58.8 395.373 58.32C396.477 57.744 397.485 57.168 398.396 56.592C399.309 55.968 400.101 55.392 400.773 54.864H404.373V57.672C405.909 56.472 407.517 55.536 409.197 54.864C410.925 54.192 412.869 53.856 415.029 53.856C419.637 53.856 422.781 55.368 424.461 58.392C425.949 57.288 427.605 56.256 429.429 55.296C431.301 54.336 433.605 53.856 436.341 53.856C439.941 53.856 442.629 54.768 444.405 56.592C446.181 58.416 447.069 61.104 447.069 64.656V81C447.069 82.008 447.213 82.872 447.501 83.592C447.789 84.264 448.149 84.816 448.581 85.248C449.013 85.68 449.493 86.016 450.021 86.256C450.549 86.496 451.077 86.688 451.605 86.832V90Z" fill="#130F5D"/>
</svg>
