<svg width="585" height="343" viewBox="0 0 585 343" fill="none" xmlns="http://www.w3.org/2000/svg">
<path d="M352.727 316.252C302.174 316.252 132.725 286.283 21.8039 343C-1.43864 329.923 -1.58036 136.186 1.25409 54.4565C6.68681 60.8959 121.346 -11.3465 269.5 30C312.5 42.0004 448.5 30.0002 575.232 73.7746C600.365 82.4556 566.492 240.466 569.563 295.448C512.874 311.299 391.51 316.252 352.727 316.252Z" fill="#5DD9FF"/>
<path d="M190.137 71.866C189.336 79.075 179.991 79.075 172.248 79.075H61.71V79.342H57.438V163.981H61.71C97.755 145.024 143.679 175.462 147.951 218.716C150.888 247.552 142.077 283.864 108.435 283.864C93.75 283.864 79.332 273.451 77.463 253.159C75.327 232.867 92.682 218.716 103.362 229.396C112.173 203.23 87.876 186.676 68.118 192.016C34.476 201.094 32.073 253.159 56.637 272.917C75.327 288.136 94.818 288.136 118.581 288.136C178.122 288.136 196.812 253.693 196.812 218.716C196.812 179.467 167.976 146.092 118.848 144.223C100.425 143.689 82.269 145.558 61.71 157.039V116.455H140.475H190.404L194.409 72.4L190.137 71.866ZM292.016 76.672C247.16 76.672 223.13 123.931 223.13 182.404C223.13 240.877 245.558 288.136 292.016 288.136C338.741 288.136 361.169 240.877 361.169 182.404C361.169 123.931 337.139 76.672 292.016 76.672ZM292.016 80.944C305.099 80.944 312.308 126.334 312.308 182.404H271.991C271.991 126.334 278.933 80.944 292.016 80.944ZM312.308 182.404C312.308 238.207 305.366 283.864 292.283 283.864C279.2 283.864 271.991 238.474 271.991 182.404H312.308ZM423.43 79.075C399.934 79.075 381.244 98.032 381.244 121.528C381.244 144.757 399.934 163.714 423.43 163.714C446.659 163.714 465.616 144.757 465.616 121.528C465.616 98.032 446.659 79.075 423.43 79.075ZM522.754 79.075L399.667 286H404.74L527.827 79.075H522.754ZM415.153 83.881C423.163 83.881 431.44 98.566 436.78 117.79L410.347 124.999C404.74 104.44 405.007 86.551 413.551 84.148C414.085 83.881 414.619 83.881 415.153 83.881ZM436.78 117.79C442.12 138.349 442.12 156.505 433.576 158.641C425.032 161.044 415.954 145.558 410.347 124.999L436.78 117.79ZM501.928 201.628C478.432 201.628 459.742 220.585 459.742 243.814C459.742 267.31 478.432 286 501.928 286C525.157 286 544.114 267.31 544.114 243.814C544.114 220.585 525.157 201.628 501.928 201.628ZM493.651 206.434C501.661 206.167 509.938 221.119 515.278 240.343L488.845 247.552C483.505 226.993 483.505 208.837 492.049 206.701C492.583 206.434 493.117 206.434 493.651 206.434ZM515.278 240.343C520.885 260.902 520.618 278.791 512.074 281.194C503.53 283.597 494.452 268.111 488.845 247.552L515.278 240.343Z" fill="black"/>
</svg>
