<svg width="586" height="96" viewBox="0 0 586 96" fill="none" xmlns="http://www.w3.org/2000/svg">
<path d="M56.592 53.34L50.712 66H14.892V63.12C15.572 62.96 16.272 62.76 16.992 62.52C17.712 62.24 18.372 61.9 18.972 61.5C19.572 61.06 20.052 60.52 20.412 59.88C20.812 59.24 21.012 58.46 21.012 57.54V27.72C21.012 26.68 20.832 25.82 20.472 25.14C20.112 24.46 19.652 23.92 19.092 23.52C18.532 23.08 17.892 22.76 17.172 22.56C16.492 22.32 15.832 22.12 15.192 21.96V19.2H35.472V22.02C34.752 22.22 34.032 22.44 33.312 22.68C32.592 22.92 31.932 23.24 31.332 23.64C30.732 24 30.232 24.5 29.832 25.14C29.472 25.78 29.292 26.58 29.292 27.54V57.78C29.292 58.5 29.432 59.14 29.712 59.7C29.992 60.22 30.352 60.66 30.792 61.02C31.272 61.38 31.792 61.64 32.352 61.8C32.912 61.96 33.472 62.04 34.032 62.04H39.552C40.792 62.04 42.052 61.78 43.332 61.26C44.612 60.7 45.832 60.04 46.992 59.28C48.152 58.48 49.192 57.66 50.112 56.82C51.032 55.94 51.752 55.18 52.272 54.54C52.512 54.26 52.752 53.96 52.992 53.64C53.192 53.36 53.412 53.08 53.652 52.8C53.932 52.52 54.192 52.22 54.432 51.9L56.592 53.34ZM86.3745 56.88C85.8145 58.24 85.1745 59.54 84.4545 60.78C83.7345 61.98 82.8745 63.06 81.8745 64.02C80.8745 64.94 79.6945 65.66 78.3345 66.18C76.9745 66.74 75.3945 67.02 73.5945 67.02C70.9545 67.02 68.6745 66.58 66.7545 65.7C64.8345 64.78 63.2545 63.6 62.0145 62.16C60.7745 60.68 59.8545 59.02 59.2545 57.18C58.6545 55.3 58.3545 53.38 58.3545 51.42C58.3545 49.42 58.6745 47.48 59.3145 45.6C59.9945 43.68 60.9545 41.98 62.1945 40.5C63.4745 39.02 65.0145 37.84 66.8145 36.96C68.6545 36.04 70.7545 35.58 73.1145 35.58C75.3545 35.58 77.2945 35.94 78.9345 36.66C80.6145 37.38 81.9945 38.3 83.0745 39.42C84.1545 40.5 84.9545 41.7 85.4745 43.02C85.9945 44.34 86.2545 45.58 86.2545 46.74C86.2545 47.18 86.2145 47.5 86.1345 47.7C86.0945 47.86 85.9145 47.94 85.5945 47.94H66.5145C66.4745 48.46 66.4345 48.98 66.3945 49.5C66.3945 50.02 66.3945 50.56 66.3945 51.12C66.3945 55.28 67.0945 58.4 68.4945 60.48C69.8945 62.52 71.7545 63.54 74.0745 63.54C76.2345 63.54 78.0545 62.8 79.5345 61.32C81.0545 59.8 82.2345 57.9 83.0745 55.62L86.3745 56.88ZM77.3745 45.12C77.3745 44.68 77.3145 44.12 77.1945 43.44C77.1145 42.72 76.9145 42.02 76.5945 41.34C76.2745 40.66 75.8145 40.08 75.2145 39.6C74.6145 39.08 73.8145 38.82 72.8145 38.82C71.2945 38.82 70.0345 39.32 69.0345 40.32C68.0345 41.32 67.3145 42.92 66.8745 45.12H77.3745ZM120.114 64.68C119.634 65.24 118.954 65.7 118.074 66.06C117.194 66.42 116.194 66.6 115.074 66.6C113.794 66.6 112.654 66.42 111.654 66.06C110.654 65.7 109.794 65.08 109.074 64.2C108.314 64.84 107.214 65.48 105.774 66.12C104.334 66.8 102.414 67.14 100.014 67.14C98.6137 67.14 97.2737 66.96 95.9937 66.6C94.7537 66.28 93.6737 65.8 92.7537 65.16C91.8337 64.48 91.0937 63.64 90.5337 62.64C90.0137 61.64 89.7537 60.48 89.7537 59.16C89.7537 57.36 90.2137 55.86 91.1337 54.66C92.0537 53.46 93.1537 52.48 94.4337 51.72C95.7537 50.92 97.1137 50.3 98.5137 49.86C99.9537 49.42 101.174 49.06 102.174 48.78C103.294 48.46 104.374 48.14 105.414 47.82C106.454 47.5 107.374 47.2 108.174 46.92V43.5C108.174 41.86 107.774 40.6 106.974 39.72C106.214 38.84 105.274 38.4 104.154 38.4C103.114 38.4 102.234 38.76 101.514 39.48C100.834 40.16 100.274 41 99.8337 42C99.3537 43.08 98.8337 43.94 98.2737 44.58C97.7137 45.22 96.9137 45.54 95.8737 45.54C94.7937 45.54 93.9737 45.24 93.4137 44.64C92.8537 44.04 92.5737 43.28 92.5737 42.36C92.5737 41.56 92.8337 40.76 93.3537 39.96C93.9137 39.12 94.6937 38.38 95.6937 37.74C96.6937 37.1 97.8937 36.58 99.2937 36.18C100.734 35.78 102.334 35.58 104.094 35.58C105.774 35.58 107.334 35.8 108.774 36.24C110.214 36.64 111.454 37.22 112.494 37.98C113.534 38.74 114.334 39.68 114.894 40.8C115.494 41.88 115.794 43.1 115.794 44.46V60.18C115.794 60.86 115.954 61.44 116.274 61.92C116.634 62.36 117.034 62.72 117.474 63C117.954 63.24 118.434 63.38 118.914 63.42C119.394 63.46 119.794 63.42 120.114 63.3V64.68ZM108.174 50.58C107.094 50.62 105.934 50.82 104.694 51.18C103.454 51.54 102.294 52.06 101.214 52.74C100.174 53.38 99.2937 54.16 98.5737 55.08C97.8537 56 97.4937 57.02 97.4937 58.14C97.4937 59.86 97.9337 61.18 98.8137 62.1C99.6937 62.98 100.894 63.42 102.414 63.42C103.174 63.42 103.894 63.3 104.574 63.06C105.254 62.78 105.854 62.4 106.374 61.92C106.934 61.44 107.374 60.88 107.694 60.24C108.014 59.6 108.174 58.88 108.174 58.08V50.58ZM148.969 39.36C148.969 40.28 148.649 41.04 148.009 41.64C147.369 42.24 146.629 42.54 145.789 42.54C145.229 42.54 144.729 42.48 144.289 42.36C143.849 42.24 143.429 42.1 143.029 41.94C142.669 41.78 142.309 41.64 141.949 41.52C141.589 41.4 141.209 41.34 140.809 41.34C140.329 41.34 139.829 41.48 139.309 41.76C138.789 42.04 138.269 42.42 137.749 42.9C137.229 43.38 136.729 43.94 136.249 44.58C135.769 45.18 135.369 45.8 135.049 46.44V59.46C135.049 60.26 135.189 60.9 135.469 61.38C135.749 61.86 136.089 62.24 136.489 62.52C136.929 62.8 137.389 63.02 137.869 63.18C138.349 63.3 138.789 63.42 139.189 63.54V66H122.929V63.48C123.449 63.36 123.969 63.22 124.489 63.06C125.009 62.86 125.489 62.6 125.929 62.28C126.369 61.92 126.729 61.5 127.009 61.02C127.289 60.5 127.429 59.84 127.429 59.04V48.96C127.429 48.08 127.329 47.36 127.129 46.8C126.929 46.24 126.689 45.8 126.409 45.48C126.169 45.16 125.889 44.94 125.569 44.82C125.289 44.7 125.049 44.62 124.849 44.58L122.989 44.34V41.7C123.749 41.42 124.509 41.1 125.269 40.74C126.029 40.38 126.789 40 127.549 39.6C128.469 39.12 129.309 38.64 130.069 38.16C130.829 37.64 131.489 37.16 132.049 36.72H135.049V41.28C136.249 39.92 137.649 38.7 139.249 37.62C140.849 36.5 142.629 35.94 144.589 35.94C146.109 35.94 147.209 36.34 147.889 37.14C148.609 37.9 148.969 38.64 148.969 39.36ZM184.548 66H169.608V63.48C170.128 63.32 170.608 63.14 171.048 62.94C171.528 62.74 171.948 62.48 172.308 62.16C172.668 61.84 172.948 61.44 173.148 60.96C173.348 60.48 173.448 59.86 173.448 59.1V45.3C173.448 43.58 173.008 42.28 172.128 41.4C171.288 40.52 170.068 40.08 168.468 40.08C167.428 40.08 166.368 40.36 165.288 40.92C164.248 41.44 163.268 42.04 162.348 42.72V59.34C162.348 60.14 162.468 60.78 162.708 61.26C162.948 61.74 163.248 62.12 163.608 62.4C164.008 62.68 164.428 62.9 164.868 63.06C165.308 63.18 165.728 63.3 166.128 63.42V66H150.468V63.36C150.988 63.24 151.508 63.1 152.028 62.94C152.548 62.74 153.028 62.48 153.468 62.16C153.908 61.8 154.268 61.38 154.548 60.9C154.828 60.38 154.968 59.72 154.968 58.92V48.9C154.968 48.02 154.868 47.3 154.668 46.74C154.468 46.18 154.228 45.74 153.948 45.42C153.708 45.1 153.428 44.88 153.108 44.76C152.828 44.64 152.588 44.56 152.388 44.52L150.528 44.34V41.7C151.288 41.42 152.048 41.1 152.808 40.74C153.568 40.38 154.328 40 155.088 39.6C156.008 39.12 156.848 38.64 157.608 38.16C158.368 37.64 159.028 37.16 159.588 36.72H162.348V39.06C163.748 38.06 165.228 37.28 166.788 36.72C168.348 36.16 170.028 35.88 171.828 35.88C174.868 35.88 177.128 36.64 178.608 38.16C180.088 39.68 180.828 41.92 180.828 44.88V58.5C180.828 59.34 180.928 60.06 181.128 60.66C181.368 61.22 181.668 61.68 182.028 62.04C182.388 62.4 182.788 62.68 183.228 62.88C183.668 63.08 184.108 63.24 184.548 63.36V66ZM225.184 65.82C224.664 66.14 223.904 66.42 222.904 66.66C221.904 66.9 220.864 67.02 219.784 67.02C218.424 67.02 217.144 66.86 215.944 66.54C214.784 66.22 213.764 65.7 212.884 64.98C212.044 64.26 211.364 63.32 210.844 62.16C210.364 60.96 210.124 59.5 210.124 57.78V39.42H206.344V37.8C207.504 37.12 208.524 36.42 209.404 35.7C210.284 34.94 211.084 34.04 211.804 33C213.004 31.28 214.164 28.98 215.284 26.1H217.684V36.66H225.064V39.42H217.684V58.32C217.684 60.4 218.144 61.84 219.064 62.64C219.984 63.4 221.124 63.78 222.484 63.78C223.244 63.78 223.844 63.68 224.284 63.48C224.724 63.24 225.024 63.06 225.184 62.94V65.82ZM262.884 66H247.944V63.48C248.464 63.32 248.944 63.14 249.384 62.94C249.864 62.74 250.284 62.48 250.644 62.16C251.004 61.84 251.284 61.44 251.484 60.96C251.684 60.48 251.784 59.86 251.784 59.1V45.3C251.784 43.58 251.344 42.28 250.464 41.4C249.624 40.52 248.404 40.08 246.804 40.08C245.764 40.08 244.704 40.36 243.624 40.92C242.584 41.44 241.604 42.04 240.684 42.72V59.34C240.684 60.14 240.804 60.78 241.044 61.26C241.284 61.74 241.584 62.12 241.944 62.4C242.344 62.68 242.764 62.9 243.204 63.06C243.644 63.18 244.064 63.3 244.464 63.42V66H228.564V63.36C229.084 63.24 229.604 63.1 230.124 62.94C230.644 62.74 231.124 62.48 231.564 62.16C232.004 61.8 232.364 61.38 232.644 60.9C232.924 60.38 233.064 59.72 233.064 58.92V31.32C233.064 30.44 232.964 29.72 232.764 29.16C232.564 28.6 232.324 28.16 232.044 27.84C231.804 27.52 231.524 27.3 231.204 27.18C230.924 27.06 230.684 27 230.484 27L228.624 26.76V24.18C229.384 23.86 230.144 23.54 230.904 23.22C231.664 22.86 232.424 22.46 233.184 22.02C235.024 21.02 236.524 20.08 237.684 19.2H240.684V39.06C242.084 38.06 243.564 37.28 245.124 36.72C246.684 36.16 248.364 35.88 250.164 35.88C253.204 35.88 255.464 36.64 256.944 38.16C258.424 39.68 259.164 41.92 259.164 44.88V58.5C259.164 59.34 259.264 60.06 259.464 60.66C259.704 61.22 260.004 61.68 260.364 62.04C260.724 62.4 261.124 62.68 261.564 62.88C262.004 63.08 262.444 63.24 262.884 63.36V66ZM293.386 56.88C292.826 58.24 292.186 59.54 291.466 60.78C290.746 61.98 289.886 63.06 288.886 64.02C287.886 64.94 286.706 65.66 285.346 66.18C283.986 66.74 282.406 67.02 280.606 67.02C277.966 67.02 275.686 66.58 273.766 65.7C271.846 64.78 270.266 63.6 269.026 62.16C267.786 60.68 266.866 59.02 266.266 57.18C265.666 55.3 265.366 53.38 265.366 51.42C265.366 49.42 265.686 47.48 266.326 45.6C267.006 43.68 267.966 41.98 269.206 40.5C270.486 39.02 272.026 37.84 273.826 36.96C275.666 36.04 277.766 35.58 280.126 35.58C282.366 35.58 284.306 35.94 285.946 36.66C287.626 37.38 289.006 38.3 290.086 39.42C291.166 40.5 291.966 41.7 292.486 43.02C293.006 44.34 293.266 45.58 293.266 46.74C293.266 47.18 293.226 47.5 293.146 47.7C293.106 47.86 292.926 47.94 292.606 47.94H273.526C273.486 48.46 273.446 48.98 273.406 49.5C273.406 50.02 273.406 50.56 273.406 51.12C273.406 55.28 274.106 58.4 275.506 60.48C276.906 62.52 278.766 63.54 281.086 63.54C283.246 63.54 285.066 62.8 286.546 61.32C288.066 59.8 289.246 57.9 290.086 55.62L293.386 56.88ZM284.386 45.12C284.386 44.68 284.326 44.12 284.206 43.44C284.126 42.72 283.926 42.02 283.606 41.34C283.286 40.66 282.826 40.08 282.226 39.6C281.626 39.08 280.826 38.82 279.826 38.82C278.306 38.82 277.046 39.32 276.046 40.32C275.046 41.32 274.326 42.92 273.886 45.12H284.386ZM342.797 39.36C342.797 40.28 342.477 41.04 341.837 41.64C341.197 42.24 340.457 42.54 339.617 42.54C339.057 42.54 338.557 42.48 338.117 42.36C337.677 42.24 337.257 42.1 336.857 41.94C336.497 41.78 336.137 41.64 335.777 41.52C335.417 41.4 335.037 41.34 334.637 41.34C334.157 41.34 333.657 41.48 333.137 41.76C332.617 42.04 332.097 42.42 331.577 42.9C331.057 43.38 330.557 43.94 330.077 44.58C329.597 45.18 329.197 45.8 328.877 46.44V59.46C328.877 60.26 329.017 60.9 329.297 61.38C329.577 61.86 329.917 62.24 330.317 62.52C330.757 62.8 331.217 63.02 331.697 63.18C332.177 63.3 332.617 63.42 333.017 63.54V66H316.757V63.48C317.277 63.36 317.797 63.22 318.317 63.06C318.837 62.86 319.317 62.6 319.757 62.28C320.197 61.92 320.557 61.5 320.837 61.02C321.117 60.5 321.257 59.84 321.257 59.04V48.96C321.257 48.08 321.157 47.36 320.957 46.8C320.757 46.24 320.517 45.8 320.237 45.48C319.997 45.16 319.717 44.94 319.397 44.82C319.117 44.7 318.877 44.62 318.677 44.58L316.817 44.34V41.7C317.577 41.42 318.337 41.1 319.097 40.74C319.857 40.38 320.617 40 321.377 39.6C322.297 39.12 323.137 38.64 323.897 38.16C324.657 37.64 325.317 37.16 325.877 36.72H328.877V41.28C330.077 39.92 331.477 38.7 333.077 37.62C334.677 36.5 336.457 35.94 338.417 35.94C339.937 35.94 341.037 36.34 341.717 37.14C342.437 37.9 342.797 38.64 342.797 39.36ZM357.316 23.58C357.316 24.78 356.876 25.82 355.996 26.7C355.156 27.54 354.136 27.96 352.936 27.96C351.736 27.96 350.696 27.54 349.816 26.7C348.976 25.82 348.556 24.78 348.556 23.58C348.556 22.38 348.976 21.36 349.816 20.52C350.696 19.64 351.736 19.2 352.936 19.2C354.136 19.2 355.156 19.64 355.996 20.52C356.876 21.36 357.316 22.38 357.316 23.58ZM360.556 66H344.656V63.48C345.176 63.36 345.696 63.22 346.216 63.06C346.736 62.86 347.216 62.6 347.656 62.28C348.096 61.92 348.456 61.5 348.736 61.02C349.016 60.5 349.156 59.84 349.156 59.04V48.96C349.156 48.08 349.056 47.36 348.856 46.8C348.656 46.24 348.416 45.8 348.136 45.48C347.896 45.16 347.616 44.94 347.296 44.82C347.016 44.7 346.776 44.62 346.576 44.58L344.716 44.34V41.7C345.476 41.42 346.236 41.1 346.996 40.74C347.756 40.38 348.516 40 349.276 39.6C350.196 39.12 351.036 38.64 351.796 38.16C352.556 37.64 353.216 37.16 353.776 36.72H356.776V59.46C356.776 60.26 356.896 60.9 357.136 61.38C357.376 61.86 357.676 62.24 358.036 62.52C358.436 62.8 358.856 63.02 359.296 63.18C359.736 63.3 360.156 63.42 360.556 63.54V66ZM397.624 38.64C397.624 39.4 397.324 40.04 396.724 40.56C396.164 41.08 395.524 41.34 394.804 41.34C394.324 41.34 393.904 41.26 393.544 41.1C393.184 40.94 392.824 40.76 392.464 40.56C392.104 40.36 391.744 40.18 391.384 40.02C391.024 39.86 390.624 39.78 390.184 39.78C389.504 39.78 388.924 40.06 388.444 40.62C389.684 42.34 390.304 44.3 390.304 46.5C390.304 48.42 389.984 50.12 389.344 51.6C388.704 53.04 387.804 54.26 386.644 55.26C385.524 56.22 384.184 56.96 382.624 57.48C381.064 58 379.384 58.26 377.584 58.26C376.104 58.26 374.644 58.08 373.204 57.72C373.004 57.84 372.784 58.02 372.544 58.26C372.344 58.46 372.244 58.7 372.244 58.98C372.244 59.54 372.544 59.96 373.144 60.24C373.744 60.48 374.544 60.68 375.544 60.84C376.544 61 377.684 61.12 378.964 61.2C380.244 61.28 381.564 61.38 382.924 61.5C384.324 61.62 385.704 61.82 387.064 62.1C388.424 62.38 389.644 62.8 390.724 63.36C391.804 63.88 392.664 64.58 393.304 65.46C393.984 66.34 394.324 67.48 394.324 68.88C394.324 70.8 393.784 72.36 392.704 73.56C391.664 74.76 390.344 75.7 388.744 76.38C387.184 77.1 385.504 77.58 383.704 77.82C381.904 78.06 380.264 78.18 378.784 78.18C377.744 78.18 376.424 78.12 374.824 78C373.264 77.92 371.744 77.66 370.264 77.22C368.784 76.82 367.504 76.18 366.424 75.3C365.384 74.46 364.864 73.28 364.864 71.76C364.864 70.72 365.204 69.76 365.884 68.88C366.604 68 367.364 67.26 368.164 66.66C366.004 65.86 364.924 64.34 364.924 62.1C364.924 61.5 365.064 60.9 365.344 60.3C365.664 59.7 366.044 59.14 366.484 58.62C366.924 58.1 367.404 57.62 367.924 57.18C368.444 56.7 368.944 56.3 369.424 55.98C367.904 54.94 366.744 53.64 365.944 52.08C365.184 50.52 364.804 48.82 364.804 46.98C364.804 45.18 365.124 43.58 365.764 42.18C366.444 40.74 367.344 39.54 368.464 38.58C369.624 37.62 370.964 36.88 372.484 36.36C374.004 35.84 375.624 35.58 377.344 35.58C378.944 35.58 380.524 35.82 382.084 36.3C383.644 36.74 385.064 37.46 386.344 38.46C387.144 37.42 388.124 36.62 389.284 36.06C390.484 35.46 391.724 35.16 393.004 35.16C393.524 35.16 394.044 35.24 394.564 35.4C395.124 35.52 395.624 35.74 396.064 36.06C396.504 36.34 396.864 36.7 397.144 37.14C397.464 37.58 397.624 38.08 397.624 38.64ZM382.924 46.8C382.924 45.96 382.824 45.08 382.624 44.16C382.464 43.2 382.164 42.34 381.724 41.58C381.324 40.82 380.764 40.2 380.044 39.72C379.364 39.2 378.504 38.94 377.464 38.94C376.384 38.94 375.484 39.2 374.764 39.72C374.084 40.24 373.544 40.92 373.144 41.76C372.784 42.56 372.524 43.44 372.364 44.4C372.244 45.36 372.184 46.28 372.184 47.16C372.184 48 372.264 48.88 372.424 49.8C372.624 50.68 372.944 51.5 373.384 52.26C373.824 53.02 374.384 53.64 375.064 54.12C375.744 54.6 376.604 54.84 377.644 54.84C378.644 54.84 379.464 54.58 380.104 54.06C380.784 53.5 381.324 52.82 381.724 52.02C382.164 51.18 382.464 50.3 382.624 49.38C382.824 48.46 382.924 47.6 382.924 46.8ZM387.664 71.04C387.664 70.4 387.364 69.86 386.764 69.42C386.164 69.02 385.384 68.68 384.424 68.4C383.464 68.16 382.404 67.98 381.244 67.86C380.084 67.74 378.944 67.66 377.824 67.62C376.744 67.58 375.744 67.56 374.824 67.56C373.944 67.56 373.284 67.54 372.844 67.5C372.324 67.82 371.824 68.24 371.344 68.76C370.864 69.28 370.624 69.88 370.624 70.56C370.624 71.48 370.884 72.22 371.404 72.78C371.964 73.38 372.644 73.84 373.444 74.16C374.244 74.48 375.084 74.7 375.964 74.82C376.884 74.94 377.684 75 378.364 75C378.924 75 379.724 74.94 380.764 74.82C381.804 74.74 382.824 74.56 383.824 74.28C384.864 74 385.764 73.6 386.524 73.08C387.284 72.56 387.664 71.88 387.664 71.04ZM431.517 66H416.577V63.48C417.097 63.32 417.577 63.14 418.017 62.94C418.497 62.74 418.917 62.48 419.277 62.16C419.637 61.84 419.917 61.44 420.117 60.96C420.317 60.48 420.417 59.86 420.417 59.1V45.3C420.417 43.58 419.977 42.28 419.097 41.4C418.257 40.52 417.037 40.08 415.437 40.08C414.397 40.08 413.337 40.36 412.257 40.92C411.217 41.44 410.237 42.04 409.317 42.72V59.34C409.317 60.14 409.437 60.78 409.677 61.26C409.917 61.74 410.217 62.12 410.577 62.4C410.977 62.68 411.397 62.9 411.837 63.06C412.277 63.18 412.697 63.3 413.097 63.42V66H397.197V63.36C397.717 63.24 398.237 63.1 398.757 62.94C399.277 62.74 399.757 62.48 400.197 62.16C400.637 61.8 400.997 61.38 401.277 60.9C401.557 60.38 401.697 59.72 401.697 58.92V31.32C401.697 30.44 401.597 29.72 401.397 29.16C401.197 28.6 400.957 28.16 400.677 27.84C400.437 27.52 400.157 27.3 399.837 27.18C399.557 27.06 399.317 27 399.117 27L397.257 26.76V24.18C398.017 23.86 398.777 23.54 399.537 23.22C400.297 22.86 401.057 22.46 401.817 22.02C403.657 21.02 405.157 20.08 406.317 19.2H409.317V39.06C410.717 38.06 412.197 37.28 413.757 36.72C415.317 36.16 416.997 35.88 418.797 35.88C421.837 35.88 424.097 36.64 425.577 38.16C427.057 39.68 427.797 41.92 427.797 44.88V58.5C427.797 59.34 427.897 60.06 428.097 60.66C428.337 61.22 428.637 61.68 428.997 62.04C429.357 62.4 429.757 62.68 430.197 62.88C430.637 63.08 431.077 63.24 431.517 63.36V66ZM452.059 65.82C451.539 66.14 450.779 66.42 449.779 66.66C448.779 66.9 447.739 67.02 446.659 67.02C445.299 67.02 444.019 66.86 442.819 66.54C441.659 66.22 440.639 65.7 439.759 64.98C438.919 64.26 438.239 63.32 437.719 62.16C437.239 60.96 436.999 59.5 436.999 57.78V39.42H433.219V37.8C434.379 37.12 435.399 36.42 436.279 35.7C437.159 34.94 437.959 34.04 438.679 33C439.879 31.28 441.039 28.98 442.159 26.1H444.559V36.66H451.939V39.42H444.559V58.32C444.559 60.4 445.019 61.84 445.939 62.64C446.859 63.4 447.999 63.78 449.359 63.78C450.119 63.78 450.719 63.68 451.159 63.48C451.599 63.24 451.899 63.06 452.059 62.94V65.82ZM523.43 39.3C522.95 39.42 522.45 39.56 521.93 39.72C521.45 39.84 520.95 40.06 520.43 40.38C519.95 40.66 519.49 41.08 519.05 41.64C518.61 42.16 518.23 42.86 517.91 43.74L509.69 66H506.03L498.05 45.84L490.61 66H486.95L478.01 43.38C477.69 42.54 477.29 41.86 476.81 41.34C476.37 40.82 475.91 40.42 475.43 40.14C474.95 39.86 474.49 39.68 474.05 39.6C473.65 39.48 473.31 39.4 473.03 39.36V36.72H488.63V39.24C487.83 39.44 487.11 39.72 486.47 40.08C485.83 40.44 485.51 40.98 485.51 41.7C485.51 41.98 485.61 42.38 485.81 42.9L490.73 55.5L495.23 42.72C495.31 42.52 495.37 42.34 495.41 42.18C495.45 41.98 495.47 41.78 495.47 41.58C495.47 41.06 495.33 40.66 495.05 40.38C494.77 40.1 494.43 39.88 494.03 39.72C493.67 39.56 493.29 39.46 492.89 39.42C492.53 39.38 492.27 39.36 492.11 39.36V36.72H507.71V39.24C506.91 39.44 506.19 39.72 505.55 40.08C504.91 40.44 504.59 40.98 504.59 41.7C504.59 41.98 504.69 42.38 504.89 42.9L509.81 55.5L513.83 43.68C513.91 43.48 513.97 43.28 514.01 43.08C514.05 42.88 514.07 42.68 514.07 42.48C514.07 41.64 513.75 40.96 513.11 40.44C512.47 39.88 511.85 39.5 511.25 39.3V36.72H523.43V39.3ZM553.883 64.68C553.403 65.24 552.723 65.7 551.843 66.06C550.963 66.42 549.963 66.6 548.843 66.6C547.563 66.6 546.423 66.42 545.423 66.06C544.423 65.7 543.563 65.08 542.843 64.2C542.083 64.84 540.983 65.48 539.543 66.12C538.103 66.8 536.183 67.14 533.783 67.14C532.383 67.14 531.043 66.96 529.763 66.6C528.523 66.28 527.443 65.8 526.523 65.16C525.603 64.48 524.863 63.64 524.303 62.64C523.783 61.64 523.523 60.48 523.523 59.16C523.523 57.36 523.983 55.86 524.903 54.66C525.823 53.46 526.923 52.48 528.203 51.72C529.523 50.92 530.883 50.3 532.283 49.86C533.723 49.42 534.943 49.06 535.943 48.78C537.063 48.46 538.143 48.14 539.183 47.82C540.223 47.5 541.143 47.2 541.943 46.92V43.5C541.943 41.86 541.543 40.6 540.743 39.72C539.983 38.84 539.043 38.4 537.923 38.4C536.883 38.4 536.003 38.76 535.283 39.48C534.603 40.16 534.043 41 533.603 42C533.123 43.08 532.603 43.94 532.043 44.58C531.483 45.22 530.683 45.54 529.643 45.54C528.563 45.54 527.743 45.24 527.183 44.64C526.623 44.04 526.343 43.28 526.343 42.36C526.343 41.56 526.603 40.76 527.123 39.96C527.683 39.12 528.463 38.38 529.463 37.74C530.463 37.1 531.663 36.58 533.063 36.18C534.503 35.78 536.103 35.58 537.863 35.58C539.543 35.58 541.103 35.8 542.543 36.24C543.983 36.64 545.223 37.22 546.263 37.98C547.303 38.74 548.103 39.68 548.663 40.8C549.263 41.88 549.563 43.1 549.563 44.46V60.18C549.563 60.86 549.723 61.44 550.043 61.92C550.403 62.36 550.803 62.72 551.243 63C551.723 63.24 552.203 63.38 552.683 63.42C553.163 63.46 553.563 63.42 553.883 63.3V64.68ZM541.943 50.58C540.863 50.62 539.703 50.82 538.463 51.18C537.223 51.54 536.063 52.06 534.983 52.74C533.943 53.38 533.063 54.16 532.343 55.08C531.623 56 531.263 57.02 531.263 58.14C531.263 59.86 531.703 61.18 532.583 62.1C533.463 62.98 534.663 63.42 536.183 63.42C536.943 63.42 537.663 63.3 538.343 63.06C539.023 62.78 539.623 62.4 540.143 61.92C540.703 61.44 541.143 60.88 541.463 60.24C541.783 59.6 541.943 58.88 541.943 58.08V50.58ZM585.047 39.12C584.047 39.48 583.027 40.08 581.987 40.92C580.987 41.76 580.147 43.1 579.467 44.94L570.767 67.98C569.607 71.18 568.207 73.68 566.567 75.48C564.927 77.28 562.787 78.18 560.147 78.18C558.547 78.18 557.187 77.76 556.067 76.92C554.947 76.08 554.387 75 554.387 73.68C554.387 72.88 554.627 72.2 555.107 71.64C555.627 71.08 556.347 70.8 557.267 70.8C557.947 70.8 558.487 70.94 558.887 71.22C559.327 71.54 559.687 71.86 559.967 72.18C560.287 72.54 560.567 72.86 560.807 73.14C561.087 73.46 561.427 73.62 561.827 73.62C562.187 73.62 562.507 73.58 562.787 73.5C563.067 73.42 563.347 73.24 563.627 72.96C563.947 72.72 564.247 72.36 564.527 71.88C564.807 71.44 565.127 70.84 565.487 70.08L567.467 65.7L557.807 42.66C557.527 42.02 557.187 41.52 556.787 41.16C556.427 40.76 556.027 40.44 555.587 40.2C555.187 39.96 554.767 39.78 554.327 39.66C553.887 39.5 553.467 39.36 553.067 39.24V36.72H568.607V39.18C567.927 39.38 567.247 39.68 566.567 40.08C565.887 40.48 565.547 41.14 565.547 42.06C565.547 42.46 565.667 42.96 565.907 43.56L571.307 55.86L576.167 43.5C576.367 43.06 576.467 42.58 576.467 42.06C576.467 41.62 576.367 41.26 576.167 40.98C575.967 40.66 575.707 40.4 575.387 40.2C575.067 40 574.727 39.82 574.367 39.66C574.007 39.5 573.647 39.34 573.287 39.18V36.72H585.047V39.12Z" fill="black"/>
<path d="M9.48828 73.0001C136.252 72.9915 275.822 73.6667 329.988 80.0001H311.488C290.831 74.0029 90.6665 78.2185 9.48828 78.1483C4.48828 75 -4.51172 73.001 9.48828 73.0001Z" fill="#4339F2" stroke="#4339F2" stroke-width="3"/>
</svg>
